<svg viewBox="0 0 512 512" xml:space="preserve" xmlns="http://www.w3.org/2000/svg"><path fill="currentColor" d="M436.681 475.956H76.014c-21.872 0-39.667-17.795-39.667-39.667v-30.333c0-5.522 4.477-10 10-10h420c5.522 0 10 4.478 10 10v30.333c.001 21.872-17.794 39.667-39.666 39.667zm-380.334-60v20.333c0 10.845 8.822 19.667 19.667 19.667h360.667c10.845 0 19.667-8.822 19.667-19.667v-20.333H56.347zM466.348 285.956h-420c-5.523 0-10-4.478-10-10V236.29c0-16.726 13.607-30.333 30.333-30.333h379.334c16.726 0 30.333 13.607 30.333 30.333v39.666c0 5.523-4.478 10-10 10zm-410.001-20h400V236.29c0-5.698-4.636-10.333-10.333-10.333H66.681c-5.698 0-10.333 4.636-10.333 10.333v29.666z"/><path fill="currentColor" d="M427.015 415.956H85.681c-27.203 0-49.333-22.131-49.333-49.333v-11.334c0-27.202 22.131-49.333 49.333-49.333H122.6a17.953 17.953 0 0 1 13.829 6.478l39.918 47.902 39.919-47.902a17.953 17.953 0 0 1 13.828-6.478h196.92c27.202 0 49.333 22.131 49.333 49.333v11.334c.001 27.202-22.13 49.333-49.332 49.333zm-341.334-90c-16.174 0-29.333 13.159-29.333 29.333v11.334c0 16.174 13.159 29.333 29.333 29.333h341.334c16.174 0 29.333-13.159 29.333-29.333v-11.334c0-16.174-13.159-29.333-29.333-29.333H231.031l-40.856 49.026c-3.431 4.116-8.471 6.478-13.828 6.478s-10.397-2.361-13.828-6.477l-40.856-49.027H85.681z"/><path fill="currentColor" d="M176.347 385.956a9.997 9.997 0 0 1-7.682-3.599l-47.001-56.401H46.347c-16.542 0-30-13.458-30-30s13.458-30 30-30h420c16.542 0 30 13.458 30 30s-13.458 30-30 30H231.031l-47.001 56.401a10 10 0 0 1-7.683 3.599zm-130-100c-5.514 0-10 4.486-10 10s4.486 10 10 10h80a9.997 9.997 0 0 1 7.682 3.599l42.318 50.781 42.318-50.781a10 10 0 0 1 7.682-3.599h240c5.514 0 10-4.486 10-10s-4.486-10-10-10h-420zM446.348 225.957h-380c-5.523 0-10-4.477-10-10 0-48.292 20.947-93.629 58.982-127.661 37.722-33.751 87.804-52.339 141.018-52.339s103.296 18.588 141.018 52.339c38.035 34.032 58.982 79.369 58.982 127.661 0 5.522-4.478 10-10 10zm-369.653-20H436c-5.829-83.582-84.181-150-179.653-150s-173.823 66.418-179.652 150z"/><path fill="currentColor" d="M316.348 185.957a9.97 9.97 0 0 1-7.071-2.929c-3.905-3.905-3.905-10.237 0-14.143l20-20c3.906-3.904 10.236-3.904 14.143 0 3.905 3.905 3.905 10.237 0 14.143l-20 20a9.976 9.976 0 0 1-7.072 2.929zM246.347 115.957a9.966 9.966 0 0 1-7.071-2.929c-3.905-3.905-3.905-10.237 0-14.142l20-20c3.908-3.904 10.238-3.905 14.143 0 3.905 3.905 3.905 10.237 0 14.142l-20.001 20a9.97 9.97 0 0 1-7.071 2.929zM306.348 135.957a9.97 9.97 0 0 1-7.071-2.929c-3.905-3.905-3.905-10.237 0-14.143l20-20c3.906-3.904 10.236-3.904 14.143 0 3.905 3.905 3.905 10.237 0 14.143l-20 20a9.976 9.976 0 0 1-7.072 2.929zM246.347 175.957a9.966 9.966 0 0 1-7.071-2.929c-3.905-3.905-3.905-10.237 0-14.142l20-20c3.908-3.905 10.238-3.904 14.143 0 3.905 3.905 3.905 10.237 0 14.142l-20.001 20a9.97 9.97 0 0 1-7.071 2.929zM176.347 185.957a9.97 9.97 0 0 1-7.071-2.929c-3.905-3.905-3.905-10.237 0-14.143l20-20c3.905-3.904 10.237-3.904 14.143 0 3.905 3.905 3.905 10.237 0 14.143l-20 20a9.975 9.975 0 0 1-7.072 2.929zM176.347 135.957a9.97 9.97 0 0 1-7.071-2.929c-3.905-3.905-3.905-10.237 0-14.143l20-20c3.905-3.904 10.237-3.904 14.143 0 3.905 3.905 3.905 10.237 0 14.143l-20 20a9.975 9.975 0 0 1-7.072 2.929zM106.347 185.957a9.97 9.97 0 0 1-7.071-2.929c-3.905-3.905-3.905-10.237 0-14.143l20-20c3.905-3.904 10.237-3.904 14.143 0 3.905 3.905 3.905 10.237 0 14.143l-20 20a9.975 9.975 0 0 1-7.072 2.929zM376.348 185.957a9.97 9.97 0 0 1-7.071-2.929c-3.905-3.905-3.905-10.237 0-14.143l20-20c3.906-3.904 10.236-3.904 14.143 0 3.905 3.905 3.905 10.237 0 14.143l-20 20a9.976 9.976 0 0 1-7.072 2.929z"/></svg>